<?xml version="1.0" encoding="UTF-8"?>
<svg width="18px" height="18px" viewBox="0 0 18 18" version="1.1" xmlns="http://www.w3.org/2000/svg" xmlns:xlink="http://www.w3.org/1999/xlink">
    <!-- Generator: Sketch 54.1 (76490) - https://sketchapp.com -->
    <title>map</title>
    <desc>Created with Sketch.</desc>
    <g id="页面1" stroke="none" stroke-width="1" fill="none" fill-rule="evenodd">
        <g id="你们要的图标-来了" transform="translate(-19.000000, -59.000000)" fill="currentColor" fill-rule="nonzero">
            <g id="编组" transform="translate(0.000000, 47.000000)">
                <g id="map" transform="translate(19.000000, 12.000000)">
                    <path d="M9,10.6617518 L6.17380796,7.83595316 L6.73896019,7.27040749 L9,9.53142857 L11.2610398,7.27040749 L11.826192,7.83555972 L9,10.6617518 Z M11.826192,7.83595316 L11.2610398,7.27040749 C12.5096956,6.02168533 12.5096597,3.99716601 11.2609597,2.74848809 C10.0122597,1.49981017 7.98774034,1.49981017 6.7390403,2.74848809 C5.49034026,3.99716601 5.49030439,6.02168533 6.73896019,7.27040749 L6.17420141,7.83516628 C4.61343326,6.27437939 4.61343326,3.74355035 6.17420141,2.1827822 C7.73498829,0.621995316 10.2658173,0.621995316 11.8265855,2.1827822 C13.3873724,3.74355035 13.3873724,6.27437939 11.8265855,7.83516628 L11.826192,7.83595316 Z M9,5.80874941 C8.55851366,5.80874941 8.20061827,5.45085402 8.20061827,5.00936768 C8.20061827,4.56788134 8.55851366,4.20998595 9,4.20998595 C9.44148634,4.20998595 9.79938173,4.56788134 9.79938173,5.00936768 C9.79938173,5.45085402 9.44148634,5.80874941 9,5.80874941 Z M6.48595785,12.6525902 C6.37964349,12.5528302 6.33608186,12.4030962 6.3722878,12.2618732 C6.40849374,12.1206502 6.51872289,12.0103443 6.65992063,11.97404 C6.80111837,11.9377357 6.95088261,11.9811931 7.05071663,12.0874379 L9.12350351,14.1598126 L15.4761405,7.80717564 L13.7962529,7.80717564 L13.7962529,7.00781265 L15.7922998,7.00781265 C16.1102008,7.00685735 16.4154435,7.13230957 16.640796,7.35653758 C16.8661485,7.58076559 16.9931261,7.88537688 16.9937611,8.20327869 L16.9937611,15.4052459 C16.9915611,16.0663795 16.4546357,16.6009833 15.7934988,16.6003185 L2.20650117,16.6003185 C1.88877586,16.6010596 1.58378079,16.4755003 1.35866513,16.2512842 C1.13354946,16.0270681 1.00676992,15.7225782 1.00623888,15.4048525 L1.00623888,8.20286651 C1.00634453,7.88483915 1.13316607,7.57996169 1.35864583,7.35568443 C1.5841256,7.13140716 1.88967685,7.00621771 2.20770023,7.00781265 L4.20374707,7.00781265 L4.20374707,7.80717564 L2.20770023,7.80717564 C2.10161399,7.80556969 1.99931845,7.84659241 1.92373592,7.92105147 C1.8481534,7.99551052 1.80560344,8.0971803 1.80562061,8.20327869 L1.80562061,13.8652553 L5.55349883,10.117377 C5.62837479,10.0427889 5.72988458,10.0011094 5.83557091,10.0015595 C5.94125723,10.0020095 6.04240837,10.044552 6.11664637,10.1197752 C6.27252459,10.2756534 6.27012646,10.5314473 6.11865105,10.6825293 L1.85199063,14.9496019 C1.83757828,14.9640885 1.82207615,14.9774485 1.80562061,14.9895644 L1.80562061,15.4052459 C1.80562061,15.6238876 1.98428103,15.8013302 2.20650117,15.8013302 L9.63391101,15.8013302 L6.4855644,12.6530211 L6.48595785,12.6525902 Z M15.7930867,15.8009368 C16.0130552,15.8018324 16.1924014,15.624814 16.1943794,15.4048525 L16.1943794,8.21405152 C16.1829713,8.22900426 16.1705519,8.24315764 16.1572084,8.25641218 L9.68865574,14.7253583 L10.7038689,15.7405714 C10.722381,15.7590747 10.7391105,15.7792794 10.7538361,15.800918 L15.7938923,15.800918 L15.7930867,15.8009368 Z" id="形状"></path>
                </g>
            </g>
        </g>
    </g>
</svg>
