<svg xmlns="http://www.w3.org/2000/svg" width="14.726" height="14.726" viewBox="0 0 14.726 14.726">
  <defs>
    <style>
      .cls-1 {
        fill: #fff;
      }
    </style>
  </defs>
  <path id="路径_16" data-name="路径 16" class="cls-1" d="M5.522,0H1.227A1.231,1.231,0,0,0,0,1.227V5.522A1.231,1.231,0,0,0,1.227,6.749H5.522A1.231,1.231,0,0,0,6.749,5.522V1.227A1.231,1.231,0,0,0,5.522,0Zm0,5.522H1.227V1.227H5.522V5.522Zm0,.614v0ZM13.5,0H9.2A1.231,1.231,0,0,0,7.976,1.227V5.522A1.231,1.231,0,0,0,9.2,6.749H13.5a1.231,1.231,0,0,0,1.227-1.227V1.227A1.231,1.231,0,0,0,13.5,0Zm0,5.522H9.2V1.227H13.5V5.522ZM5.522,7.976H1.227A1.231,1.231,0,0,0,0,9.2V13.5a1.231,1.231,0,0,0,1.227,1.227H5.522A1.231,1.231,0,0,0,6.749,13.5V9.2A1.231,1.231,0,0,0,5.522,7.976Zm0,5.522H1.227V9.2H5.522V13.5Zm0,.614v0ZM13.5,7.976H9.2A1.231,1.231,0,0,0,7.976,9.2V13.5A1.231,1.231,0,0,0,9.2,14.726H13.5A1.231,1.231,0,0,0,14.726,13.5V9.2A1.231,1.231,0,0,0,13.5,7.976Zm0,5.522H9.2V9.2H13.5Z"/>
</svg>
