<?xml version="1.0" standalone="no"?><!DOCTYPE svg PUBLIC "-//W3C//DTD SVG 1.1//EN" "http://www.w3.org/Graphics/SVG/1.1/DTD/svg11.dtd"><svg t="1585799076997" class="icon" viewBox="0 0 1024 1024" version="1.1" xmlns="http://www.w3.org/2000/svg" p-id="4344" xmlns:xlink="http://www.w3.org/1999/xlink" width="32" height="32"><defs><style type="text/css"></style></defs><path d="M491.6 529.2c-112 0-202.9-90.8-202.9-202.9s90.8-202.9 202.9-202.9c112 0 202.9 90.8 202.9 202.9s-90.9 202.9-202.9 202.9m0-463.7c-69.2 0-135.5 27.4-184.5 76.4-48.9 48.9-76.4 115.3-76.4 184.5 0 97.5 54.2 181.7 133.6 226.4C219.3 604.9 115 742.6 115 905.7c0 10 2.2 19.2 2.9 29.1h0.6c1.5 14.4 13.7 25.3 28.2 25.3s26.6-10.9 28.2-25.3h0.9c-0.8-9.8-2.9-19.1-2.9-29.1 0-84.5 33.5-165.6 93.3-225.4C325.9 620.6 407 587 491.5 587l29-2.9c130.1-14.6 231.7-123.8 231.7-257.8 0-143.9-116.6-260.6-260.6-260.8M889.3 810c-1.7-0.5-3.4-1-5.2-1H563.3c-11.9 0-21.6 9.7-21.6 21.6 0 11.9 9.7 21.6 21.6 21.6h271.5l-73.1 71.6c-4 3.9-6.2 9.3-6.2 14.9s2.3 11 6.2 14.9c8.4 8.3 21.9 8.3 30.3 0l109.5-107.8c4-4 6.3-9.4 6.3-15.1 0-5.7-2.3-11.1-6.3-15.1-3.4-3.1-7.7-5.1-12.2-5.6m-330.1-67.1c1.8 0.5 3.7 0.7 5.5 0.7h322.5c8 0.7 15.6-3.2 19.8-10 4.2-6.8 4.2-15.4 0-22.2-4.2-6.8-11.9-10.7-19.8-10h-273l73.4-72.7c6.2-6.2 8.1-15.5 4.7-23.5-3.3-8.1-11.2-13.4-19.9-13.4-5.7 0-11.1 2.3-15.2 6.3L547.3 707c-4 4-6.3 9.5-6.3 15.2 0 5.7 2.3 11.1 6.3 15.2 3.3 3 7.5 5 11.9 5.5" p-id="4345" fill="#ffffff"></path></svg>