<?xml version="1.0" standalone="no"?><!DOCTYPE svg PUBLIC "-//W3C//DTD SVG 1.1//EN" "http://www.w3.org/Graphics/SVG/1.1/DTD/svg11.dtd"><svg class="icon" width="32px" height="32.00px" viewBox="0 0 1024 1024" version="1.1" xmlns="http://www.w3.org/2000/svg"><path fill="#ffffff" d="M427.4 526.6c-3.8 0-7.4-0.8-11-2.2-86.2-36.4-141.8-120.4-141.8-213.8 0-128 104.2-232 232-232s232 104.2 232 232c0 90.6-53.2 173.4-135.6 211.2-14.4 6.6-31.2 0.2-37.8-14-6.6-14.4-0.2-31.2 14.2-37.8 62.2-28.4 102.4-91 102.4-159.4 0-96.6-78.6-175-175-175s-175 78.6-175 175c0 70.6 42 133.8 107 161.2 14.4 6.2 21.2 22.8 15.2 37.4C449 520.2 438.4 526.6 427.4 526.6M657.8 938.6 657.8 938.6l-492.6-0.4c-31 0-59.2-15.4-75.6-41.2-15.8-24.8-17.6-55.4-5.2-82 43.2-92.2 156.4-247.6 429.2-251.8C794 558.2 896 724.6 932 823.6c9.4 26 5.6 54-10.4 77-16.6 23.8-44.2 38-73.8 38l-71.2 0c-15.8 0-28.6-12.8-28.6-28.6s12.8-28.6 28.6-28.6l71.2 0c11 0 21-5.2 27-13.6 3-4.4 7.6-13.4 3.6-25-37.4-103.6-132-226.6-363.8-222.8C284.8 623.8 182 741.4 136 839.2c-4.2 9-3.6 19 1.8 27.2 5.8 9.2 16.2 14.6 27.6 14.6l492.4 0.4c15.8 0 28.4 12.8 28.4 28.6C686.4 926 673.6 938.6 657.8 938.6" /></svg>